<svg xmlns="http://www.w3.org/2000/svg" version="1.1" xmlns:xlink="http://www.w3.org/1999/xlink" width="512"
    height="512" x="0" y="0" viewBox="0 0 512 512" style="enable-background:new 0 0 512 512" xml:space="preserve"
    class="">
    <g>
        <g data-name="Layer 1">
            <path fill="#80eaff"
                d="m502.644 79.286-90.306 258.376H56.882c-15.576.479-28.2 6.524-37.648 18.535l131.84-246.165c8.746-16.981 37.753-30.746 64.789-30.746z"
                opacity="1" data-original="#80eaff"></path>
            <path fill="#66ccff" d="m502.644 79.286-90.306 258.376H383.2l94.09-258.376z" opacity="1"
                data-original="#66ccff"></path>
            <path fill="#f5f5f5" d="M412.339 337.662v95.052H56.882a47.526 47.526 0 0 1 0-95.052z" opacity="1"
                data-original="#f5f5f5"></path>
            <path fill="#e6e6e6"
                d="M412.338 337.662v95.052H56.882a47.536 47.536 0 0 1-46.593-38.136A47.346 47.346 0 0 0 43 407.643h340.2v-69.981z"
                opacity="1" data-original="#e6e6e6"></path>
            <path fill="#bfbfbf"
                d="m412.338 337.662 90.306-258.376v87.548a8.911 8.911 0 0 1-.477 2.873l-89.829 263.007z" opacity="1"
                data-original="#bfbfbf"></path>
            <path fill="#8c8c8c"
                d="m412.338 401.768 90.306-262.393v27.459a8.911 8.911 0 0 1-.477 2.873l-89.829 263.007z" opacity="1"
                data-original="#8c8c8c"></path>
            <path
                d="M508.637 79.286a5.987 5.987 0 0 0-5.993-6H215.863c-29.5 0-60.3 14.934-70.078 33.913l-131.66 245.83a53.495 53.495 0 0 0 42.757 85.685h355.457a6 6 0 0 0 5.674-4.061l89.829-263.01a14.877 14.877 0 0 0 .8-4.81V79.286zm-352.229 33.493c7.676-14.9 34.9-27.493 59.455-27.493H494.19l-86.11 246.376H56.882a53.211 53.211 0 0 0-19.727 3.784zm249.931 313.935H56.882a41.526 41.526 0 0 1 0-83.052h349.457zm90.15-258.946-78.15 228.816v-57.9l78.305-224.042v52.2a2.9 2.9 0 0 1-.155.926zm-290.295-28.385a6 6 0 0 1 6-6h206.229a6 6 0 0 1 0 12H212.194a6 6 0 0 1-6-6zm-20.9 48.888a6 6 0 0 1 6-6h206.225a6 6 0 0 1 0 12H191.29a6 6 0 0 1-6-6zm-20.9 48.889a6 6 0 0 1 6-6h206.221a6 6 0 0 1 0 12H170.387a6 6 0 0 1-6-6zm-20.9 48.888a6 6 0 0 1 6-6h206.217a6 6 0 0 1 0 12H149.482a6 6 0 0 1-6-6z"
                fill="#000000" opacity="1" data-original="#000000" class=""></path>
        </g>
    </g>
</svg>